<?xml version="1.0" encoding="UTF-8" standalone="no"?>
<!DOCTYPE svg PUBLIC "-//W3C//DTD SVG 20010904//EN"
              "http://www.w3.org/TR/2001/REC-SVG-20010904/DTD/svg10.dtd">

<svg xmlns="http://www.w3.org/2000/svg"
     width="6.05in" height="0.933333in"
     viewBox="0 0 363 56">
  <path id="Imported Path #1"
        fill="none" stroke="black" stroke-width="1"
        d="M 6.50,40.45
           C 6.50,40.45 0.90,40.45 0.90,40.45
             0.90,40.45 0.90,52.70 0.90,52.70
             0.90,52.70 7.97,55.50 15.32,55.50
             25.12,55.50 33.59,50.67 33.59,40.17
             33.59,24.42 8.39,28.48 8.39,17.84
             8.39,14.34 11.40,11.05 17.70,11.05
             21.55,11.05 25.12,12.31 25.12,12.31
             25.12,12.31 27.50,19.80 27.50,19.80
             27.50,19.80 32.05,19.80 32.05,19.80
             32.05,19.80 32.40,7.90 32.40,7.90
             32.40,7.90 24.28,5.10 17.63,5.10
             8.88,5.10 1.04,9.23 1.04,19.03
             1.04,35.76 26.31,31.28 26.31,42.06
             26.31,47.03 20.71,49.55 15.60,49.55
             11.05,49.55 7.90,47.80 7.90,47.80
             7.90,47.80 6.50,40.45 6.50,40.45
             6.50,40.45 6.50,40.45 6.50,40.45 Z
           M 45.39,18.05
           C 45.39,18.05 45.39,21.90 45.39,21.90
             45.39,21.90 51.34,23.30 51.34,23.30
             51.34,23.30 51.34,49.20 51.34,49.20
             51.34,49.20 45.39,50.95 45.39,50.95
             45.39,50.95 45.39,54.80 45.39,54.80
             45.39,54.80 62.89,54.80 62.89,54.80
             62.89,54.80 62.89,50.95 62.89,50.95
             62.89,50.95 58.34,49.20 58.34,49.20
             58.34,49.20 58.34,28.55 58.34,28.55
             58.34,28.55 62.19,22.95 68.14,22.95
             72.69,22.95 74.09,25.40 74.09,30.30
             74.09,30.30 74.09,49.20 74.09,49.20
             74.09,49.20 69.54,50.95 69.54,50.95
             69.54,50.95 69.54,54.80 69.54,54.80
             69.54,54.80 85.64,54.80 85.64,54.80
             85.64,54.80 85.64,50.95 85.64,50.95
             85.64,50.95 81.09,49.20 81.09,49.20
             81.09,49.20 81.09,28.55 81.09,28.55
             81.09,28.55 84.94,22.95 90.89,22.95
             95.44,22.95 96.84,25.40 96.84,30.30
             96.84,30.30 96.84,49.20 96.84,49.20
             96.84,49.20 92.29,50.95 92.29,50.95
             92.29,50.95 92.29,54.80 92.29,54.80
             92.29,54.80 109.09,54.80 109.09,54.80
             109.09,54.80 109.09,50.95 109.09,50.95
             109.09,50.95 103.84,49.20 103.84,49.20
             103.84,49.20 103.84,29.60 103.84,29.60
             103.84,21.90 100.69,17.00 92.99,17.00
             86.55,17.00 80.88,22.11 79.97,23.02
             78.36,19.38 75.28,17.00 70.24,17.00
             64.50,17.00 59.18,21.13 57.57,22.67
             57.57,22.67 56.94,17.70 56.94,17.70
             56.94,17.70 45.39,18.05 45.39,18.05 Z
           M 121.59,28.55
           C 121.59,28.55 126.14,28.55 126.14,28.55
             126.14,28.55 127.12,23.30 127.12,23.30
             127.12,23.30 129.99,22.25 134.19,22.25
             138.39,22.25 140.84,24.35 140.84,28.55
             140.84,28.55 140.84,34.15 140.84,34.15
             140.84,34.15 135.24,34.15 135.24,34.15
             125.44,34.15 119.14,36.95 119.14,45.00
             119.14,51.65 122.99,55.50 129.64,55.50
             134.54,55.50 138.74,52.28 141.12,49.90
             141.12,49.90 142.59,54.80 142.59,54.80
             142.59,54.80 153.44,54.45 153.44,54.45
             153.44,54.45 153.44,50.60 153.44,50.60
             153.44,50.60 147.84,49.20 147.84,49.20
             147.84,49.20 147.84,27.85 147.84,27.85
             147.84,19.80 143.01,17.00 134.89,17.00
             128.94,17.00 121.24,19.80 121.24,19.80
             121.24,19.80 121.59,28.55 121.59,28.55
             121.59,28.55 121.59,28.55 121.59,28.55 Z
           M 140.84,38.70
           C 140.84,38.70 140.84,44.30 140.84,44.30
             140.84,44.30 136.64,49.90 131.39,49.90
             128.24,49.90 126.28,47.80 126.28,44.65
             126.28,40.45 128.94,38.70 135.94,38.70
             135.94,38.70 140.84,38.70 140.84,38.70
             140.84,38.70 140.84,38.70 140.84,38.70 Z
           M 175.19,49.20
           C 175.19,49.20 175.19,0.90 175.19,0.90
             175.19,0.90 162.10,1.25 162.10,1.25
             162.10,1.25 162.10,5.10 162.10,5.10
             162.10,5.10 168.05,6.50 168.05,6.50
             168.05,6.50 168.05,49.20 168.05,49.20
             168.05,49.20 162.10,50.95 162.10,50.95
             162.10,50.95 162.10,54.80 162.10,54.80
             162.10,54.80 181.49,54.80 181.49,54.80
             181.49,54.80 181.49,50.95 181.49,50.95
             181.49,50.95 175.19,49.20 175.19,49.20 Z
           M 201.48,49.20
           C 201.48,49.20 201.48,0.90 201.48,0.90
             201.48,0.90 188.39,1.25 188.39,1.25
             188.39,1.25 188.39,5.10 188.39,5.10
             188.39,5.10 194.34,6.50 194.34,6.50
             194.34,6.50 194.34,49.20 194.34,49.20
             194.34,49.20 188.39,50.95 188.39,50.95
             188.39,50.95 188.39,54.80 188.39,54.80
             188.39,54.80 207.78,54.80 207.78,54.80
             207.78,54.80 207.78,50.95 207.78,50.95
             207.78,50.95 201.48,49.20 201.48,49.20 Z
           M 217.13,32.75
           C 217.13,32.75 217.13,38.70 217.13,38.70
             217.13,38.70 235.33,38.70 235.33,38.70
             235.33,38.70 235.33,32.75 235.33,32.75
             235.33,32.75 217.13,32.75 217.13,32.75 Z
           M 296.48,10.00
           C 296.48,10.00 296.48,5.80 296.48,5.80
             296.48,5.80 276.53,6.15 276.53,6.15
             276.53,6.15 276.53,10.00 276.53,10.00
             276.53,10.00 283.18,11.40 283.18,11.40
             283.18,11.40 283.18,34.85 283.18,34.85
             283.18,45.70 280.38,49.55 271.63,49.55
             263.58,49.55 260.08,46.40 260.08,35.90
             260.08,35.90 260.08,11.40 260.08,11.40
             260.08,11.40 266.73,10.00 266.73,10.00
             266.73,10.00 266.73,5.80 266.73,5.80
             266.73,5.80 246.78,6.15 246.78,6.15
             246.78,6.15 246.78,10.00 246.78,10.00
             246.78,10.00 252.73,11.40 252.73,11.40
             252.73,11.40 252.73,35.90 252.73,35.90
             252.73,48.85 257.63,55.50 271.28,55.50
             285.98,55.50 290.53,47.80 290.53,34.85
             290.53,34.85 290.53,11.40 290.53,11.40
             290.53,11.40 296.48,10.00 296.48,10.00 Z
           M 306.88,18.05
           C 306.88,18.05 306.88,21.90 306.88,21.90
             306.88,21.90 312.83,23.30 312.83,23.30
             312.83,23.30 312.83,49.20 312.83,49.20
             312.83,49.20 306.88,50.95 306.88,50.95
             306.88,50.95 306.88,54.80 306.88,54.80
             306.88,54.80 326.83,54.80 326.83,54.80
             326.83,54.80 326.83,50.95 326.83,50.95
             326.83,50.95 319.83,49.20 319.83,49.20
             319.83,49.20 319.83,28.41 319.83,28.41
             321.37,26.38 324.73,22.95 329.98,22.95
             329.98,22.95 331.03,28.20 331.03,28.20
             331.03,28.20 335.58,28.20 335.58,28.20
             335.58,28.20 335.93,18.05 335.93,18.05
             335.93,18.05 333.13,17.00 329.63,17.00
             324.87,17.00 320.81,20.85 319.06,22.81
             319.06,22.81 318.43,17.70 318.43,17.70
             318.43,17.70 306.88,18.05 306.88,18.05 Z
           M 356.28,49.20
           C 356.28,49.20 356.28,0.90 356.28,0.90
             356.28,0.90 343.19,1.25 343.19,1.25
             343.19,1.25 343.19,5.10 343.19,5.10
             343.19,5.10 349.14,6.50 349.14,6.50
             349.14,6.50 349.14,49.20 349.14,49.20
             349.14,49.20 343.19,50.95 343.19,50.95
             343.19,50.95 343.19,54.80 343.19,54.80
             343.19,54.80 362.58,54.80 362.58,54.80
             362.58,54.80 362.58,50.95 362.58,50.95
             362.58,50.95 356.28,49.20 356.28,49.20 Z" />
</svg>
